<?xml version="1.0" encoding="utf-8"?>
<!-- Generator: Adobe Illustrator 19.2.1, SVG Export Plug-In . SVG Version: 6.00 Build 0)  -->
<svg version="1.1" id="圖層_1" xmlns="http://www.w3.org/2000/svg" xmlns:xlink="http://www.w3.org/1999/xlink" x="0px" y="0px"
	 viewBox="0 0 44 29.9" style="enable-background:new 0 0 44 29.9;" xml:space="preserve">
<style type="text/css">
	.st0{fill:none;}
	.st1{fill:#818181;}
</style>
<polygon class="st0" points="31.4,19.7 30.1,19.9 31.4,19.7 "/>
<path class="st0" d="M7,1.9H3.6C1.7,1.9,0,3.6,0,5.5v20.9c0,1.9,1.7,3.5,3.6,3.5h37c1.9,0,3.4-1.5,3.4-3.5V5.5
	c0-1.9-1.4-3.6-3.4-3.6H36 M34,1.9H10 M10,2.9h24 M36,2.9h4.6C42,2.9,43,4.2,43,5.5v20.9c0,1.4-1,2.5-2.4,2.5h-37
	c-1.4,0-2.6-1.1-2.6-2.5V5.5c0-1.4,1.2-2.6,2.6-2.6H7"/>
<path class="st0" d="M40.6,2.9H36h-2H10H7H3.6C2.2,2.9,1,4.2,1,5.5v20.9c0,1.4,1.2,2.5,2.6,2.5h37c1.4,0,2.4-1.1,2.4-2.5V5.5
	C43,4.2,42,2.9,40.6,2.9z M15,24.6c0,0.7-0.6,1.4-1.4,1.4H8.4c-0.7,0-1.4-0.6-1.4-1.4v-5.3c0-0.7,0.6-1.4,1.4-1.4h5.3
	c0.7,0,1.4,0.6,1.4,1.4V24.6z M15,15.6c0,0.7-0.6,1.4-1.4,1.4H8.4c-0.7,0-1.4-0.6-1.4-1.4v-5.3c0-0.7,0.6-1.4,1.4-1.4h5.3
	c0.7,0,1.4,0.6,1.4,1.4V15.6z M26,24.6c0,0.7-0.6,1.4-1.4,1.4h-5.3c-0.7,0-1.4-0.6-1.4-1.4v-5.3c0-0.7,0.6-1.4,1.4-1.4h5.3
	c0.7,0,1.4,0.6,1.4,1.4V24.6z M26,15.6c0,0.7-0.6,1.4-1.4,1.4h-5.3c-0.7,0-1.4-0.6-1.4-1.4v-5.3c0-0.7,0.6-1.4,1.4-1.4h5.3
	c0.7,0,1.4,0.6,1.4,1.4V15.6z M37.2,22.7C36.4,23.5,36,24,34,24.2v1.7h-1v-1.7c-1-0.1-2.1-0.6-2.8-1.3c-0.3-0.3-0.5-0.6-0.7-0.9
	c-0.3-0.6-0.6-1.3-0.7-2.1l1.1-0.1l1.1-0.1v0l0.2,0c0.1,0.4,0.3,0.7,0.5,0.9c0.1,0.1,0.2,0.3,0.3,0.4c0.3,0.4,1.1,0.7,1.1,0.8v-4.1
	c-1-0.4-2.3-0.9-2.9-1.7c-0.6-0.7-0.9-1.6-0.9-2.7c0-1.1,0.4-2,1-2.7C30.9,10,32,9.5,33,9.4V8.9h1v0.5c1,0.1,2,0.5,2.7,1.1
	c0.6,0.6,1.1,1.4,1.3,2.4l-2.6,0.3c0,0,0,0,0,0l0,0c-0.2-0.8-0.3-1.3-1.3-1.6v3.8c2,0.4,2.8,1,3.4,1.7c0.2,0.3,0.4,0.6,0.5,0.9
	c0.3,0.5,0.4,1.1,0.4,1.7C38.3,20.9,37.9,21.9,37.2,22.7z"/>
<path class="st1" d="M13.6,8.9H8.4C7.6,8.9,7,9.5,7,10.3v5.3c0,0.7,0.6,1.4,1.4,1.4h5.3c0.7,0,1.4-0.6,1.4-1.4v-5.3
	C15,9.5,14.4,8.9,13.6,8.9z"/>
<path class="st1" d="M24.6,17.9h-5.3c-0.7,0-1.4,0.6-1.4,1.4v5.3c0,0.7,0.6,1.4,1.4,1.4h5.3c0.7,0,1.4-0.6,1.4-1.4v-5.3
	C26,18.5,25.4,17.9,24.6,17.9z"/>
<path class="st1" d="M13.6,17.9H8.4c-0.7,0-1.4,0.6-1.4,1.4v5.3c0,0.7,0.6,1.4,1.4,1.4h5.3c0.7,0,1.4-0.6,1.4-1.4v-5.3
	C15,18.5,14.4,17.9,13.6,17.9z"/>
<path class="st1" d="M40.6,1.9H36h-2H10H7H3.6C1.7,1.9,0,3.6,0,5.5v20.9c0,1.9,1.7,3.5,3.6,3.5h37c1.9,0,3.4-1.5,3.4-3.5V5.5
	C44,3.6,42.6,1.9,40.6,1.9z M43,26.5c0,1.4-1,2.5-2.4,2.5h-37c-1.4,0-2.6-1.1-2.6-2.5V5.5c0-1.4,1.2-2.6,2.6-2.6H7h3h24h2h4.6
	C42,2.9,43,4.2,43,5.5V26.5z"/>
<path class="st1" d="M24.6,8.9h-5.3c-0.7,0-1.4,0.6-1.4,1.4v5.3c0,0.7,0.6,1.4,1.4,1.4h5.3c0.7,0,1.4-0.6,1.4-1.4v-5.3
	C26,9.5,25.4,8.9,24.6,8.9z"/>
<path class="st1" d="M35,17.9h-5.3c-0.7,0-1.4,0.6-1.4,1.4v5.3c0,0.7,0.6,1.4,1.4,1.4H35c0.7,0,1.4-0.6,1.4-1.4v-5.3
	C36.3,18.5,35.7,17.9,35,17.9z"/>
<path class="st1" d="M35,8.9h-5.3c-0.7,0-1.4,0.6-1.4,1.4v5.3c0,0.7,0.6,1.4,1.4,1.4H35c0.7,0,1.4-0.6,1.4-1.4v-5.3
	C36.3,9.5,35.7,8.9,35,8.9z"/>
<rect x="8.6" class="st1" width="1.8" height="4.8"/>
<rect x="34.6" class="st1" width="1.8" height="4.8"/>
</svg>
