<?xml version="1.0" encoding="utf-8"?>
<!-- Generator: Adobe Illustrator 19.2.1, SVG Export Plug-In . SVG Version: 6.00 Build 0)  -->
<svg version="1.1" id="圖層_1" xmlns="http://www.w3.org/2000/svg" xmlns:xlink="http://www.w3.org/1999/xlink" x="0px" y="0px"
	 viewBox="0 0 28.8 28.8" style="enable-background:new 0 0 28.8 28.8;" xml:space="preserve">
<style type="text/css">
	.st0{fill:#818181;}
	.st1{fill:none;stroke:#818181;stroke-width:0.4889;stroke-miterlimit:10;}
</style>
<path class="st0" d="M23.1,15.5h-1.7v6c0,0.4-0.2,1-1,1h-4v-6h-4v6h-4c-0.8,0-1-0.6-1-1v-6H5.7c-0.6,0-0.5-0.3-0.1-0.7l8-8
	c0.2-0.2,0.5-0.3,0.7-0.3c0.3,0,0.5,0.1,0.7,0.3l8,8C23.6,15.1,23.7,15.5,23.1,15.5z"/>
<path class="st1" d="M25.7,28.6H3.1c-1.6,0-2.9-1.3-2.9-2.9V3.1c0-1.6,1.3-2.9,2.9-2.9h22.6c1.6,0,2.9,1.3,2.9,2.9v22.6
	C28.6,27.3,27.3,28.6,25.7,28.6z"/>
</svg>
