<?xml version="1.0" encoding="utf-8"?>
<!-- Generator: Adobe Illustrator 19.2.0, SVG Export Plug-In . SVG Version: 6.00 Build 0)  -->
<svg version="1.1" xmlns="http://www.w3.org/2000/svg" xmlns:xlink="http://www.w3.org/1999/xlink" x="0px" y="0px"
	 viewBox="0 0 65 65.2" style="enable-background:new 0 0 65 65.2;" xml:space="preserve">
<style type="text/css">
	.st0{opacity:0.55;}
	.st1{fill:#FFFFFF;}
	.st2{fill:#87C3C4;}
</style>
<g id="Capa_1">
	<g class="st0">
		<g>
			<path class="st1" d="M63,29.1c-1.3-1.3-2.9-2-4.7-2c-1.8,0-3.4,0.6-4.7,2c-1.3,1.3-2,2.9-2,4.7s0.6,3.4,1.9,4.7
				c1.3,1.3,2.9,2,4.7,2s3.4-0.6,4.7-2c1.3-1.3,2-2.9,2-4.7C65,32,64.4,30.4,63,29.1z"/>
			<path class="st1" d="M50.3,46.6c-1.7,0-3.1,0.6-4.3,1.7c-1.2,1.2-1.7,2.6-1.7,4.2c0,1.7,0.6,3.1,1.7,4.3c1.2,1.2,2.6,1.7,4.3,1.7
				c1.7,0,3.1-0.6,4.2-1.7c1.2-1.2,1.8-2.6,1.8-4.3c0-1.7-0.6-3.1-1.8-4.2C53.4,47.1,52,46.6,50.3,46.6z"/>
			<path class="st1" d="M51.2,22.7c2,0,3.7-0.7,5.1-2.1c1.4-1.4,2.1-3.1,2.1-5.1c0-2-0.7-3.7-2.1-5.2c-1.4-1.4-3.1-2.1-5.1-2.1
				c-2,0-3.7,0.7-5.1,2.1c-1.4,1.4-2.1,3.1-2.1,5.2c0,2,0.7,3.7,2.1,5.1C47.5,22,49.2,22.7,51.2,22.7z"/>
			<path class="st1" d="M31.5,54.3c-1.5,0-2.8,0.5-3.9,1.6c-1,1.1-1.6,2.4-1.6,3.9c0,1.5,0.5,2.8,1.6,3.8c1.1,1,2.4,1.6,3.9,1.6
				c1.5,0,2.8-0.5,3.9-1.6c1.1-1,1.6-2.3,1.6-3.8c0-1.5-0.5-2.9-1.6-3.9C34.3,54.8,33,54.3,31.5,54.3z"/>
			<path class="st1" d="M31.5,0c-2.2,0-4,0.8-5.6,2.3c-1.5,1.5-2.3,3.4-2.3,5.5s0.7,4.1,2.3,5.6c1.5,1.5,3.4,2.3,5.6,2.3
				s4-0.8,5.6-2.3c1.5-1.5,2.3-3.4,2.3-5.6s-0.8-4-2.3-5.5C35.5,0.8,33.7,0,31.5,0z"/>
			<path class="st1" d="M12.7,19c1,0,1.9-0.3,2.6-1c1.4-1.4,1.4-3.7,0-5.2c-0.7-0.7-1.6-1-2.6-1c-0.9,0-1.8,0.3-2.5,1
				c-1.5,1.4-1.5,3.7,0,5.2C10.9,18.7,11.8,19,12.7,19z"/>
			<path class="st1" d="M12.7,47.3c-1.3,0-2.4,0.5-3.4,1.5c-0.9,0.9-1.4,2-1.4,3.3c0,1.3,0.5,2.5,1.4,3.4c1,1,2.1,1.5,3.4,1.5
				s2.5-0.5,3.4-1.5c1-1,1.4-2.1,1.4-3.4c0-1.3-0.5-2.4-1.4-3.3C15.1,47.8,14,47.3,12.7,47.3z"/>
			<path class="st1" d="M7.2,30.8c-0.8-0.8-1.8-1.2-3-1.2S2,30,1.2,30.8c-0.8,0.8-1.2,1.8-1.2,3c0,1.2,0.4,2.2,1.2,3
				C2,37.7,3.1,38,4.2,38s2.1-0.4,3-1.2C8,36,8.5,35,8.5,33.8C8.5,32.6,8,31.6,7.2,30.8z"/>
		</g>
	</g>
</g>
<g id="_x32_">
	<path class="st2" d="M31.5,0c-2.2,0-4,0.8-5.6,2.3c-1.5,1.5-2.3,3.4-2.3,5.5s0.7,4.1,2.3,5.6c1.5,1.5,3.4,2.3,5.6,2.3
		s4-0.8,5.6-2.3c1.5-1.5,2.3-3.4,2.3-5.6s-0.8-4-2.3-5.5C35.5,0.8,33.7,0,31.5,0z">

		<animate id="last"
			attributeType="CSS" 
			attributeName="opacity" 
			begin="0.7s;animate7.end" 
			from="0" 
			to="1" 
			dur="0.8s" 
			repeatCount="indefinite" />
	</path>
</g>
<g id="圖層_3">
	<path class="st2" d="M51.2,22.7c2,0,3.7-0.7,5.1-2.1c1.4-1.4,2.1-3.1,2.1-5.1c0-2-0.7-3.7-2.1-5.2c-1.4-1.4-3.1-2.1-5.1-2.1
		c-2,0-3.7,0.7-5.1,2.1c-1.4,1.4-2.1,3.1-2.1,5.2c0,2,0.7,3.7,2.1,5.1C47.5,22,49.2,22.7,51.2,22.7z">

		<animate id="animate7" attributeType="CSS" 
			attributeName="opacity" 
			begin="0.6s;animate6.end" 
			from="0" 
			to="1" 
			dur="0.8s" 
			repeatCount="indefinite" />
	</path>
</g>
<g id="圖層_4">
	<path class="st2" d="M63,29.1c-1.3-1.3-2.9-2-4.7-2c-1.8,0-3.4,0.6-4.7,2c-1.3,1.3-2,2.9-2,4.7s0.6,3.4,1.9,4.7
		c1.3,1.3,2.9,2,4.7,2s3.4-0.6,4.7-2c1.3-1.3,2-2.9,2-4.7C65,32,64.4,30.4,63,29.1z">

		<animate id="animate6" attributeType="CSS" 
			attributeName="opacity" 
			begin="0.5s;animate5.end" 
			from="0" 
			to="1" 
			dur="0.8s" 
			repeatCount="indefinite" />
	</path>
</g>
<g id="圖層_5">
	<path class="st2" d="M50.3,46.6c-1.7,0-3.1,0.6-4.3,1.7c-1.2,1.2-1.7,2.6-1.7,4.2c0,1.7,0.6,3.1,1.7,4.3c1.2,1.2,2.6,1.7,4.3,1.7
		c1.7,0,3.1-0.6,4.2-1.7c1.2-1.2,1.8-2.6,1.8-4.3c0-1.7-0.6-3.1-1.8-4.2C53.4,47.1,52,46.6,50.3,46.6z">

		<animate id="animate5" attributeType="CSS" 
			attributeName="opacity" 
			begin="0.4s;animate4.end" 
			from="0" 
			to="1" 
			dur="0.8s" 
			repeatCount="indefinite" />
	</path>
</g>
<g id="圖層_6">
	<path class="st2" d="M31.5,54.3c-1.5,0-2.8,0.5-3.9,1.6c-1,1.1-1.6,2.4-1.6,3.9c0,1.5,0.5,2.8,1.6,3.8c1.1,1,2.4,1.6,3.9,1.6
		c1.5,0,2.8-0.5,3.9-1.6c1.1-1,1.6-2.3,1.6-3.8c0-1.5-0.5-2.9-1.6-3.9C34.3,54.8,33,54.3,31.5,54.3z">

		<animate id="animate4" attributeType="CSS" 
			attributeName="opacity" 
			begin="0.3s;animate3.end" 
			from="0" 
			to="1" 
			dur="0.8s" 
			repeatCount="indefinite" />
	</path>
</g>
<g id="圖層_7">
	<path class="st2" d="M12.7,47.3c-1.3,0-2.4,0.5-3.4,1.5c-0.9,0.9-1.4,2-1.4,3.3c0,1.3,0.5,2.5,1.4,3.4c1,1,2.1,1.5,3.4,1.5
		s2.5-0.5,3.4-1.5c1-1,1.4-2.1,1.4-3.4c0-1.3-0.5-2.4-1.4-3.3C15.1,47.8,14,47.3,12.7,47.3z">

		<animate id="animate3" attributeType="CSS" 
			attributeName="opacity" 
			begin="0.2s;animate2.end" 
			from="0" 
			to="1" 
			dur="0.8s" 
			repeatCount="indefinite" />
	</path>
</g>
<g id="圖層_8">
	<path class="st2" d="M7.2,30.8c-0.8-0.8-1.8-1.2-3-1.2S2,30,1.2,30.8c-0.8,0.8-1.2,1.8-1.2,3c0,1.2,0.4,2.2,1.2,3
		C2,37.7,3.1,38,4.2,38s2.1-0.4,3-1.2C8,36,8.5,35,8.5,33.8C8.5,32.6,8,31.6,7.2,30.8z">

		<animate id="animate2" attributeType="CSS" 
			attributeName="opacity" 
			begin="0.1s;animate1.end" 
			from="0" 
			to="1" 
			dur="0.8s" 
			repeatCount="indefinite" />
	</path>
</g>
<g id="圖層_9">
	<path class="st2" d="M12.7,19c1,0,1.9-0.3,2.6-1c1.4-1.4,1.4-3.7,0-5.2c-0.7-0.7-1.6-1-2.6-1c-0.9,0-1.8,0.3-2.5,1
		c-1.5,1.4-1.5,3.7,0,5.2C10.9,18.7,11.8,19,12.7,19z" >

		<animate id="animate1" attributeType="CSS" 
			attributeName="opacity" 
			begin="0s;last.end" 
			from="0" 
			to="1" 
			dur="0.8s" 
			repeatCount="indefinite" />
		<animate attributeType="css" 
			attributeName="scale" 
			begin="0s" 
			from="0.5" 
			to="1" 
			dur="0.8s" 
			repeatCount="indefinite" />
	</path>
</g>
</svg>
