<?xml version="1.0" encoding="utf-8"?>
<!-- Generator: Adobe Illustrator 19.2.1, SVG Export Plug-In . SVG Version: 6.00 Build 0)  -->
<svg version="1.1" id="Layer_1" xmlns="http://www.w3.org/2000/svg" xmlns:xlink="http://www.w3.org/1999/xlink" x="0px" y="0px"
	 viewBox="0 0 186.6 63.4" style="enable-background:new 0 0 186.6 63.4;" xml:space="preserve">
<style type="text/css">
	.st0{fill:#FFFFFF;}
	.st1{fill:#ED164C;}
</style>
<g>
	<path class="st1 red" d="M0,63.4c0,0,107-26.3,186.3-7.8l0.2-0.9c0,0-69.2-20.4-185.3,4.5L0,63.4z"/>
</g>
<g>
	<g>
		<path class="st0" d="M51.2,11.8v4.4c0.4-0.9,0.9-2.1,2.2-3.2c1.5-1.2,3.6-1.9,5.7-1.9c1.1,0,2.1,0.2,3.2,0.6
			c3.3,1.2,4.3,3.9,4.6,5c2.6-4.8,6.7-5.5,8.8-5.5c2.7,0,5,1,6.6,2.6c2.8,2.7,2.9,5.7,2.9,13.2V44h-8.2V28.8c0-5.2-0.1-6.2-1-7.6
			c-0.9-1.5-2.2-1.8-3.4-1.8c-2.2,0-3.4,1.6-3.5,1.9c-0.9,1.6-0.9,4.2-0.9,6.8V44h-8.2V27.8c0-3.5,0-5-0.8-6.5
			c-0.6-1.1-1.8-1.9-3.4-1.9c-0.7,0-1.5,0.2-2.1,0.6c-2.4,1.4-2.5,3.7-2.5,9.8V44h-8.2V11.8H51.2z"/>
		<path class="st0" d="M118.1,11.8h8.4L118.1,44h-7.7l-4.9-21.8L100.7,44h-7.8l-8.4-32.2h8.4L97.4,32l4.5-20.2h7.3l4.5,20.2
			L118.1,11.8z"/>
		<path class="st0" d="M143.8,27.6c0,2.9-0.4,5.7-2.1,7.8c-1.5,1.7-3.1,1.8-3.6,1.8c-1.6,0-3.5-1-4.6-3.8c-0.7-1.6-0.9-3.5-0.9-5.5
			c0-2.5,0.3-5,1.7-7.1c1-1.4,2.6-2.4,4.1-2.4c1.2,0,2.5,0.6,3.3,1.6C142.8,21.2,143.8,23.4,143.8,27.6z M144.2,44h8.1V11.7h-7.9
			v4.2c-1.5-3.1-4-4.9-7.2-4.9c-5.5,0-12.7,4.7-12.7,17.4c0,10.1,5.2,16.3,12,16.3c4.7,0,6.6-2.7,7.6-4.2V44z"/>
		<path class="st0" d="M171.3,11.8h8.4l-9.2,32c-0.7,2.2-1.7,5.9-3.4,7.7c-1.5,1.6-3.3,2.4-10,2.4c-1,0-1.3-0.1-2.2-0.1v-7.2h2.2
			c0.8,0,2.6,0,3.5-0.8c0.7-0.6,1.2-1.9,1.2-3.2c0-0.7-0.3-1.9-0.6-2.7l-9-28h9l5.3,21.7L171.3,11.8z"/>
		<path class="st0" d="M24.6,9.7l4.4,17h-8.6L24.6,9.7z M19.3,0L5.5,44h10.2l2.6-9.4h13l2.6,9.4h10.2L29.7,0H19.3z"/>
	</g>
	<g>
		<path class="st0" d="M51.2,11.8v4.4c0.4-0.9,0.9-2.1,2.2-3.2c1.5-1.2,3.6-1.9,5.7-1.9c1.1,0,2.1,0.2,3.2,0.6
			c3.3,1.2,4.3,3.9,4.6,5c2.6-4.8,6.7-5.5,8.8-5.5c2.7,0,5,1,6.6,2.6c2.8,2.7,2.9,5.7,2.9,13.2V44h-8.2V28.8c0-5.2-0.1-6.2-1-7.6
			c-0.9-1.5-2.2-1.8-3.4-1.8c-2.2,0-3.4,1.6-3.5,1.9c-0.9,1.6-0.9,4.2-0.9,6.8V44h-8.2V27.8c0-3.5,0-5-0.8-6.5
			c-0.6-1.1-1.8-1.9-3.4-1.9c-0.7,0-1.5,0.2-2.1,0.6c-2.4,1.4-2.5,3.7-2.5,9.8V44h-8.2V11.8H51.2z"/>
		<path class="st0" d="M118.1,11.8h8.4L118.1,44h-7.7l-4.9-21.8L100.7,44h-7.8l-8.4-32.2h8.4L97.4,32l4.5-20.2h7.3l4.5,20.2
			L118.1,11.8z"/>
		<path class="st0" d="M143.8,27.6c0,2.9-0.4,5.7-2.1,7.8c-1.5,1.7-3.1,1.8-3.6,1.8c-1.6,0-3.5-1-4.6-3.8c-0.7-1.6-0.9-3.5-0.9-5.5
			c0-2.5,0.3-5,1.7-7.1c1-1.4,2.6-2.4,4.1-2.4c1.2,0,2.5,0.6,3.3,1.6C142.8,21.2,143.8,23.4,143.8,27.6z M144.2,44h8.1V11.7h-7.9
			v4.2c-1.5-3.1-4-4.9-7.2-4.9c-5.5,0-12.7,4.7-12.7,17.4c0,10.1,5.2,16.3,12,16.3c4.7,0,6.6-2.7,7.6-4.2V44z"/>
		<path class="st0" d="M171.3,11.8h8.4l-9.2,32c-0.7,2.2-1.7,5.9-3.4,7.7c-1.5,1.6-3.3,2.4-10,2.4c-1,0-1.3-0.1-2.2-0.1v-7.2h2.2
			c0.8,0,2.6,0,3.5-0.8c0.7-0.6,1.2-1.9,1.2-3.2c0-0.7-0.3-1.9-0.6-2.7l-9-28h9l5.3,21.7L171.3,11.8z"/>
		<path class="st0" d="M24.6,9.7l4.4,17h-8.6L24.6,9.7z M19.3,0L5.5,44h10.2l2.6-9.4h13l2.6,9.4h10.2L29.7,0H19.3z"/>
	</g>
</g>
</svg>
