<?xml version="1.0" encoding="utf-8"?>
<!-- Generator: Adobe Illustrator 19.2.1, SVG Export Plug-In . SVG Version: 6.00 Build 0)  -->
<svg version="1.1" id="分離模式" xmlns="http://www.w3.org/2000/svg" xmlns:xlink="http://www.w3.org/1999/xlink" x="0px"
	 y="0px" viewBox="0 0 103.1 26.1" style="enable-background:new 0 0 103.1 26.1;" xml:space="preserve">
<style type="text/css">
	.st0{fill:#FFFFFF;}
</style>
<g>
	<path class="st0" d="M4.6,20.8c0.1-0.4,0.2-0.7,0.3-1.1c-0.8,0.3-1,1.2-0.9,3.4c-0.4-0.1-0.9,0-1.2-0.2c-1.2-0.6-2.1-1.6-2.6-2.8
		c-0.1-0.3-0.1-0.9,0.1-1.2c0.9-1.6,1.8-3.3,2.8-4.8c1.7-2.7,3.5-5.2,5.3-7.8c0.2-0.3,0.5-0.6,0.8-0.9c1-1,2.1-1.9,2.8-3.1
		c0.3-0.4,0.6-0.7,1-1c1-0.8,2.1-0.8,3,0.2c0.4,0.5,0.7,1.1,1,1.6c0.7,1.2,0.9,2.6,0.9,4c0,0.4,0.1,0.8,0.2,1.3
		c0.2-0.1,0.4-0.2,0.5-0.3c0.9-0.7,1.8-1.3,2.8-2c0.4-0.3,0.9-0.5,1.3,0c0.1-0.2,0.3-0.4,0.3-0.5c-0.1-0.6,0.4-0.7,0.7-0.9
		c1.2-0.6,2.3-1.2,3.5-1.7c1.1-0.5,2.8,0.3,3.3,1.4c0.3,0.7,0.7,1.5,0.9,2.3c0.3,0.9,0.2,1.9-0.1,2.8c-0.1,0.3-0.4,0.6-0.8,0.6
		c-0.2,0-0.5,0.2-0.6,0.4c-0.2,0.2-0.2,0.5-0.4,0.8c-0.2,0.3-0.4,0.6-0.7,0.9c0.1,0.1,0.4,0.2,0.7,0.4c-0.2,0.1-0.3,0.3-0.5,0.3
		c-0.5,0-0.6,0.4-0.7,0.8c-0.2,0.8-0.5,1.5-0.7,2.3c0.4-0.1,0.4-0.1,0.7-1c0.1-0.4,0.3-0.8,0.5-1.2c0,0.2,0.1,0.4,0.1,0.5
		c-0.2,0.7-0.4,1.4-0.6,2.1c-0.1,0.3-0.5,0.4-0.7,0.7c-0.2,0.2-0.3,0.4-0.4,0.6c-0.1,0.2,0,0.6-0.5,0.3c0,0.2,0,0.3,0,0.3
		c0.6,0.8,0.4,1.6,0,2.5c-0.4,0.8-0.7,1.5-1,2.1c-0.5,0-0.9,0-1.3-0.1c-0.4-0.1-0.9-0.2-1.2-0.4c-0.9-0.6-1.5-1.6-1.7-2.6
		c-0.1-0.5,0-1,0.1-1.5c0.6-1.6,1.3-3.1,2-4.6c0.6-1.2,1.2-2.4,1.7-3.6c0.1-0.2,0.1-0.4,0.2-0.7c-1.2,0.6-2.5,0.9-3.4,1.9
		c-1.9,2.4-4.5,3.9-6.6,6c0-0.1,0-0.2-0.1-0.2c-0.4,0-0.9-0.1-1.3,0c-0.7,0.1-1.1,0-1.5-0.6c-0.3-0.7-0.6-1.4-0.8-2.1
		c-0.1-0.2,0-0.5,0.1-0.7c0.6-1.7,1.3-3.3,1.9-5c0.2-0.5,0.1-0.8-0.3-1.2c-0.7,0.8-1.4,1.4-2,2.2C10,12,8.5,14.4,7,16.9
		c-0.8,1.3-1.5,2.7-2.2,4C4.7,20.9,4.6,20.8,4.6,20.8z M27.1,15.2c0.1,0,0.1,0,0.2,0c0.3-0.9,0.6-1.8,0.9-2.7
		C27.4,13.3,26.9,14.2,27.1,15.2z"/>
	<path class="st0" d="M59.1,10.8c0.8-0.1,1.5-0.1,2.3-0.2c2.1-0.3,4.1,0.1,5.7,1.5c0.1,0.1,0.3,0.2,0.4,0.4c0.5,1.3,1.1,2.5,1.5,3.6
		c-0.5,0.3-0.8,0.6-1.2,0.8c-1,0.8-2,1.6-3,2.4c-0.2,0.1-0.5,0.2-0.7,0.2c-0.7,0.2-1.4,0.3-2.2,0.5c0.3,0.6,0,0.9-0.4,1.1
		c-0.7,0.3-1.3,0.5-2.1,0.2c-0.2,1-1.1,1.2-1.8,1.6c-1.2,0.6-2.4,1.1-3.5,1.7c-0.5,0.3-1.1,0.5-1.4,1.2c-0.2,0.4-0.7,0.3-1.1,0.1
		c-0.6-0.3-1.2-0.7-1.8-1.1c-0.3-0.2-0.4-0.6-0.5-1c-0.1-0.5-0.1-0.9-0.1-1.5c0.5-0.3,1.1-0.5,1.7-0.8c-0.5-0.4-1-0.7-1.4-1.1
		c0.1,0,0.1,0,0.2-0.1c-0.1-0.3-0.2-0.6-0.3-0.9c-0.1-0.3-0.1-0.7,0-1c1.1-2.9,2.2-5.8,3.3-8.8c0.1-0.3,0.2-0.5-0.1-0.8
		c-0.5-0.5-0.4-1.2,0.2-1.6c1-0.7,1.6-1.5,2-2.7c0.5-1.3,1.1-2.6,1.8-3.8c0.5-0.9,1.4-1.1,2.2-0.6c0.4,0.3,0.8,0.8,1.2,1.3
		c-0.6,0.1-0.7,0.3-0.5,0.7c0.2,0.4,0.5,0.5,0.8,0.3c0.5-0.2,1-0.4,1.4-0.7c0.9-0.5,1.9-0.8,2.9-0.9c0.4-0.1,0.8,0.1,1,0.4
		C66,2.2,66.3,3,66.7,3.8c0,0.1,0.1,0.2,0,0.2c-0.5,0.9-0.9,1.8-1.4,2.7c-0.1,0.1-0.2,0.2-0.3,0.3c-0.6,0.4-1.3,0.9-1.9,1.1
		c-0.8,0.3-1.5,0.8-2.2,1.3c-0.4,0.3-1,0.4-1.4,0.8c-0.2,0.1-0.3,0.3-0.5,0.4C59.1,10.7,59.1,10.7,59.1,10.8z M53.6,20.2
		c0.8-0.3,1.6-0.7,2.4-0.8c0.6-0.1,1-0.2,1.5-0.6c0.3-0.2,0.7-0.5,1-0.4c0.6,0,1-0.2,1.5-0.4c0.3-0.1,0.5-0.4,0.8-0.6
		c1-0.7,2.1-1.3,3.1-2.1c0.3-0.2,0.6-0.6,0.9-1c-0.2-0.1-0.3-0.1-0.3-0.1c-1.5-0.6-3-0.4-4.5,0c-1.4,0.3-2.8,0.6-4.2-0.1
		c-0.2-0.1-0.6,0-0.9,0c0.1,0.1,0.1,0.1,0.2,0.2c-0.1,0.2-0.1,0.4-0.2,0.6c-0.1,0.1-0.3,0.3-0.3,0.4c0.2,1-0.2,1.7-1,2.3
		c0,0.2,0,0.4-0.1,0.6c-0.3,0.4-0.3,0.5,0.1,1c0.1-0.2,0.2-0.4,0.3-0.6c0.1,0,0.1,0.1,0.2,0.1C53.9,19.2,53.7,19.7,53.6,20.2z"/>
	<path class="st0" d="M100.2,19.3c-0.1,0.2-0.3,0.3-0.5,0.6c0.6,0,1.1,0.1,1.6,0.1c0,0.1,0,0.2,0,0.2c-0.7,0-1.4,0.1-2,0.1
		c-1.1,0.1-2.2,0.2-3.3,0.4c-0.1,0-0.2,0-0.2,0.1c-0.4,0.6-1,0.7-1.6,1c-0.3,0.2-2,0.3-2.3,0.1c-0.7-0.4-1.4-0.3-1.9,0.1
		c-0.9,0.7-1.8,0.6-2.8,0.5c-0.2,0-0.4,0.1-0.6,0.2c-0.1,0-0.3,0.1-0.4,0.1c-1.3-0.1-2.5-0.3-3.7-0.5c-0.3-0.1-0.6-0.3-0.9-0.5
		c-0.4-0.4-0.7-0.8-1-1.3C80,19.5,80,18.7,80.6,18c0.5-0.6,1-1.1,1.6-1.5c2.2-1.5,4.5-3,6.8-4.4c0.6-0.4,1.2-0.9,1.9-1.4
		c-1.6-0.4-3.1,0.6-4.6-0.1c-0.5,0.6-1.4,0.6-1.9,0c-0.3-0.4-0.5-0.8-0.9-1.2c-0.5-0.6,0.1-1,0.1-1.6c0-0.1,0.3-0.1,0.4-0.2
		c2.4-0.8,4.8-1.1,7.3-1.1c1.4,0,2.7,0.1,4.1,0.2c0.4,0,0.7,0.2,0.7,0.7c0,0.5,0.1,1,0.2,1.4c0,0.2,0.2,0.5,0.2,0.7
		c0,0.1,0.1,0.3,0,0.4c-0.6,0.6-1.1,1.2-1.7,1.8c-0.6,0.6-1.2,1.3-1.9,1.7c-0.5,0.3-1,0.5-1.6,0.8c-1,0.6-2,1.1-3,1.7
		c-0.3,0.2-0.6,0.5-0.9,0.8c-0.1,0.1-0.3,0.2-0.5,0.2c-0.5,0.2-1.2,0.2-1.3,1c0,0.1-0.2,0.1-0.3,0.2c-0.2,0.1-0.4,0.2-0.6,0.3
		c0,0.1,0,0.2,0.1,0.3c1.1,0,2.2,0,3.3,0c1.2,0,2.3-0.3,3.5,0.1c0.1,0,0.2,0.1,0.3,0c0.8-0.8,1.8-0.5,2.6-0.6c1-0.1,2,0,3,0
		c0,0.4-0.2,0.5-0.6,0.6c-1.2,0.1-2.5,0.3-3.7,0.5c-0.2,0-0.4,0.1-0.5,0.3c2.5-0.2,5-0.4,7.4-0.6C100.2,19.2,100.2,19.2,100.2,19.3z
		"/>
	<path class="st0" d="M47.3,12.3c-0.8,1-1.6,2-2.5,3.1c0,0-0.1,0-0.1,0c-0.6,1.1-1.2,2.1-1.7,3.1c0-0.1-0.1-0.2-0.2-0.4
		c-0.5,0.4-0.2,0.8,0.1,1.4c-0.3-0.1-0.5-0.2-0.7-0.3c-0.4,0.2-0.4,0.5-0.4,0.9c0,0.5-0.2,1.1-0.6,1.4c-0.4,0.3-0.6,0.6-0.3,1.2
		c-0.3-0.2-0.4-0.3-0.6-0.4c-0.2,0.7-0.5,1.3-0.7,2c0,0.1,0,0.3,0.1,0.3c0.7,0.4,0.2,0.9,0.2,1.3c0,0.1-0.2,0.2-0.3,0.2
		c-1,0.1-1.9,0-2.7-0.8c-0.6-0.6-0.5-1.1-0.3-1.7c0.6-1.5,1.3-2.9,1.9-4.4c0.4-0.9,0.8-1.8,1.2-2.8c-0.3-0.1-0.5-0.1-0.8-0.2
		c-0.7-0.1-1.4-0.2-2.1-0.4c-0.2,0-0.3-0.3-0.4-0.4c-0.6-0.5-1.4-0.9-1.8-1.6c-0.4-0.6-0.7-1.3-0.8-2c-0.2-2,0.7-3.8,1.7-5.4
		c0.2-0.3,0.8-0.7,1.3-0.4c0.4,0.2,0.9,0.3,1.3,0.5c0.8,0.3,1,0.9,0.7,1.7c-0.2,0.6-0.5,1.2-0.8,1.8c-0.3,0.6-0.3,1.3-0.8,1.8
		c-0.4,0.4,0,2.1,0.5,2.5c0.1,0.1,0.3,0.1,0.5,0.1c1.5,0,2.8-0.6,3.7-1.8c0.9-1.2,1.7-2.4,2.6-3.7c0.1-0.2,0.2-0.5,0.5-0.2
		c0,0,0.2-0.1,0.2-0.2c0.2-0.3,0.5-0.7,0.7-1c0.2-0.3,0.4-0.6,0.8-0.4c0.1,0,0.3-0.1,0.4-0.2c0.7-0.4,0.9-0.3,1.6,0.2
		c0.5,0.3,0.8,0.7,0.9,1.2c0.1,0.4,0,0.8-0.1,1.1c-0.1,0.4-0.4,0.7-0.7,1c-0.2,0.2-0.5,0.4-0.8,0.4c-0.6,0.1-0.9,0.5-1,1
		C47.1,12.1,47.2,12.2,47.3,12.3z"/>
	<path class="st0" d="M73.9,23.7c-0.6-0.3-1.5-0.3-1.4-1.3c-0.1,0.1-0.1,0.3-0.2,0.4c-0.1,0-0.1-0.1-0.2-0.1c-1.2-1-1.4-2.1-1.1-3.6
		c0.5-2,1.2-3.9,2.2-5.6c1.5-2.6,3.1-5.2,4.6-7.8c0.3-0.5,1-0.7,1.5-0.4c0.1,0,0.1,0.1,0.1,0.1c-0.1,0.7,0.6,0.8,0.8,1.3
		c0.1,0.2,0.2,0.5,0.2,0.8c0,0.7-0.1,1.4-0.2,2.1c0,0.2-0.2,0.3-0.3,0.5c-0.2,0.2-0.4,0.5-0.5,0.7c-0.5,1-0.9,2-1.8,2.8
		c-0.6,0.5-1.2,1.1-1.6,1.8c-0.4,0.7-0.7,1.5-1,2.3c-0.3,0.8-0.6,1.5-0.9,2.3c0,0.1,0,0.2,0,0.3c1-1.6,1.2-3.7,2.5-5.2
		c-0.6,1.4-1.1,2.8-1.7,4.2C74.6,20.7,73.9,22.1,73.9,23.7z"/>
	<path class="st0" d="M95.9,21.4c0.8-0.6,4.3-0.9,5.3-0.5C99.3,21.1,97.6,21.2,95.9,21.4z"/>
	<path class="st0" d="M97.9,18.4c0.8-0.2,2.1-0.1,2.4,0.2C99.6,19,98.2,18.9,97.9,18.4z"/>
	<path class="st0" d="M101.6,20c0.5,0,1,0,1.5,0c0,0.1,0,0.1,0,0.2C102.6,20.1,102.1,20.4,101.6,20z"/>
	<path class="st0" d="M27.1,15.2c-0.2-1.1,0.4-1.9,1.1-2.7c-0.3,0.9-0.6,1.8-0.9,2.7C27.2,15.3,27.1,15.2,27.1,15.2z"/>
	<path class="st0" d="M55.5,15c-0.2,0.4-0.3,0.8-0.5,1.2c0,0-0.1,0-0.1-0.1c0.1-0.4,0.3-0.8,0.4-1.3C55.3,14.9,55.4,15,55.5,15z"/>
</g>
</svg>
