<?xml version="1.0" encoding="utf-8"?>
<!-- Generator: Adobe Illustrator 19.2.1, SVG Export Plug-In . SVG Version: 6.00 Build 0)  -->
<svg version="1.1" id="分離模式" xmlns="http://www.w3.org/2000/svg" xmlns:xlink="http://www.w3.org/1999/xlink" x="0px"
	 y="0px" viewBox="0 0 41.2 32.7" style="enable-background:new 0 0 41.2 32.7;" xml:space="preserve">
<style type="text/css">
	.st0{fill:#818181;}
</style>
<g>
	<rect transform="matrix(-1 -1.224647e-016 1.224647e-016 -1 3.2263 32.6693)" class="st0" width="3.2" height="32.7"/>
	
		<rect x="6.5" y="9.2" transform="matrix(-1 -1.224647e-016 1.224647e-016 -1 17.3456 35.3552)" class="st0" width="4.4" height="17"/>
	
		<rect x="32.1" y="9.2" transform="matrix(-1 -1.224647e-016 1.224647e-016 -1 68.4702 35.3552)" class="st0" width="4.4" height="17"/>
	
		<rect x="23.5" y="2.4" transform="matrix(-1 -1.224647e-016 1.224647e-016 -1 51.4287 28.5968)" class="st0" width="4.4" height="23.7"/>
	
		<rect x="15" y="16.4" transform="matrix(-1 -1.224647e-016 1.224647e-016 -1 34.3872 42.5705)" class="st0" width="4.4" height="9.7"/>
	
		<rect x="19.5" y="11" transform="matrix(-5.581662e-011 -1 1 -5.581662e-011 -9.9792 52.1331)" class="st0" width="3.2" height="40.2"/>
</g>
</svg>
