<?xml version="1.0" encoding="utf-8"?>
<!-- Generator: Adobe Illustrator 19.2.0, SVG Export Plug-In . SVG Version: 6.00 Build 0)  -->
<svg version="1.1" id="Lock" xmlns="http://www.w3.org/2000/svg" xmlns:xlink="http://www.w3.org/1999/xlink" x="0px" y="0px"
	 viewBox="0 0 20 20" style="enable-background:new 0 0 20 20;" xml:space="preserve">
<style type="text/css">
	.st0{fill:#FFFFFF;}
</style>
<path class="st0" d="M15.8,8H14V5.6C14,2.7,12.7,1,10,1C7.3,1,6,2.7,6,5.6V8H4C3.4,8,3,8.6,3,9.2V17c0,0.5,0.4,1.1,1,1.3l1.2,0.4
	c0.5,0.2,1.4,0.3,2,0.3h5.8c0.5,0,1.4-0.1,2-0.3l1.2-0.4c0.5-0.2,1-0.8,1-1.3V9.2C17,8.6,16.4,8,15.8,8z M12,8H8V5.2
	C8,3.8,8.8,3,10,3s2,0.8,2,2.2V8z"/>
</svg>
