<?xml version="1.0" encoding="utf-8"?>
<!-- Generator: Adobe Illustrator 19.2.1, SVG Export Plug-In . SVG Version: 6.00 Build 0)  -->
<svg version="1.1" id="圖層_1" xmlns="http://www.w3.org/2000/svg" xmlns:xlink="http://www.w3.org/1999/xlink" x="0px" y="0px"
	 viewBox="0 0 27.4 42" style="enable-background:new 0 0 27.4 42;" xml:space="preserve">
<style type="text/css">
	.st0{fill:#FFFFFF;}
</style>
<circle class="st0" cx="13.7" cy="28.3" r="11.4"/>
<g>
	<path class="st0" d="M13.7,42C6.2,42,0,35.9,0,28.3s6.2-13.7,13.7-13.7c7.6,0,13.7,6.2,13.7,13.7S21.3,42,13.7,42z M13.7,16
		C6.9,16,1.4,21.5,1.4,28.3c0,6.8,5.5,12.3,12.3,12.3S26,35.1,26,28.3C26,21.5,20.5,16,13.7,16z"/>
</g>
<rect x="9.1" y="12.8" class="st0" width="9.3" height="0.8"/>
<polygon class="st0" points="1.7,0 10.8,0 18.1,12 8.7,12 "/>
<polygon class="st0" points="14.3,4.4 18.7,11.5 26,0 17.2,0 "/>
</svg>
