<?xml version="1.0" encoding="utf-8"?>
<!-- Generator: Adobe Illustrator 19.2.1, SVG Export Plug-In . SVG Version: 6.00 Build 0)  -->
<svg version="1.1" id="圖層_1" xmlns="http://www.w3.org/2000/svg" xmlns:xlink="http://www.w3.org/1999/xlink" x="0px" y="0px"
	 viewBox="0 0 36.9 31.1" style="enable-background:new 0 0 36.9 31.1;" xml:space="preserve">
<style type="text/css">
	.st0{fill:none;stroke:#FFFFFF;stroke-width:3;stroke-miterlimit:10;}
	.st1{fill:#FFFFFF;}
</style>
<path class="st0" d="M34.8,23.5H2.1c-0.4,0-0.6-0.3-0.6-0.6V2.1c0-0.4,0.3-0.6,0.6-0.6h32.6c0.4,0,0.6,0.3,0.6,0.6v20.7
	C35.4,23.2,35.1,23.5,34.8,23.5z"/>
<path class="st1" d="M24.5,30.2H12.6v-1.7c0-0.8,0.7-1.5,1.5-1.5H23c0.8,0,1.5,0.7,1.5,1.5V30.2z"/>
<path class="st1" d="M32.6,31.1H4.5v-0.4c0-0.6,0.5-1,1-1h26.1c0.6,0,1,0.5,1,1V31.1z"/>
</svg>
