<?xml version="1.0" encoding="utf-8"?>
<!-- Generator: Adobe Illustrator 19.2.1, SVG Export Plug-In . SVG Version: 6.00 Build 0)  -->
<svg version="1.1" id="Layer_1" xmlns="http://www.w3.org/2000/svg" xmlns:xlink="http://www.w3.org/1999/xlink" x="0px" y="0px"
	 viewBox="0 0 28.3 28.2" style="enable-background:new 0 0 28.3 28.2;" xml:space="preserve">
<style type="text/css">
	.st0{fill:#FFFFFF;}
</style>
<path class="st0" d="M19.4,3.3C15-1.1,7.8-1.1,3.3,3.3c-4.4,4.4-4.4,11.6,0,16.1c3.8,3.8,9.7,4.3,14.1,1.6l6.7,6.7
	c0,0,0.9,1.1,1.9,0c1.2-1.2,1.8-1.8,1.8-1.8s0.9-0.8-0.1-1.8L21,17.4C23.8,13,23.3,7.2,19.4,3.3z M17,17c-3.1,3.1-8.2,3.1-11.3,0
	c-3.1-3.1-3.1-8.2,0-11.3c3.1-3.1,8.2-3.1,11.3,0C20.2,8.8,20.2,13.9,17,17z"/>
</svg>
